# xmcd
#
# Track frame offsets:
#	150
#	24983
#	47685
#	69356
#	84462
#	108658
#	127102
#	145993
#	157898
#	183824
#	199155
#
# Disc length: 2950 seconds
#
# Revision: 11
# Processed by: cddbd v1.5.2PL0 Copyright (c) Steve Scherf et al.
# Submitted via: Jack! The Knife 20 Magnifico
#
DISCID=900b840b
DTITLE=Quiet Riot - Guilty Pleasures
DYEAR=2001
DGENRE=Hard Rock
TTITLE0=Vicious Circle
TTITLE1=Feel The Pain
TTITLE2=Rock The House
TTITLE3=Shadow Of Love
TTITLE4=I Can't Make You Love Me
TTITLE5=Feed The Machine
TTITLE6=Guilty Pleasures
TTITLE7=Blast From The Past
TTITLE8=Let Me Be The One
TTITLE9=Street Fighter
TTITLE10=Fly Too High
EXTD=Quiet Riot and John Rollo
EXTT0=DuBrow, Cavazo, Sarzo, Banali
EXTT1=DuBrow, Cavazo, Sarzo, Banali
EXTT2=DuBrow, Cavazo, Sarzo, Banali
EXTT3=DuBrow, Cavazo, Sarzo, Banali
EXTT4=DuBrow, Cavazo, Sarzo, Banali
EXTT5=DuBrow, Cavazo, Sarzo, Banali
EXTT6=DuBrow, Cavazo, Sarzo, Banali
EXTT7=DuBrow, Cavazo, Sarzo, Banali
EXTT8=DuBrow, Cavazo, Sarzo, Banali
EXTT9=DuBrow, Cavazo, Sarzo, Banali
EXTT10=DuBrow, Cavazo, Sarzo, Banali
PLAYORDER=
